# xmcd
#
# Track frame offsets:
# 150
# 14284
# 30677
# 44129
# 58528
# 72758
# 87613
# 107610
# 125243
# 142967
# 158121
# 177865
# 192200
# 209903
#
# Disc length: 2984 seconds
#
#
# Revision: 1
# Processed by: cddbd v1.5.2PL0 Copyright (c) Steve Scherf et al.
# Submitted via: FreeRIP 2.951 
#
DISCID=d00ba60e
DTITLE=Barney Kessel - My Old Flame, CD 3
DYEAR=2005
DGENRE=Jazz
TTITLE0=Lullaby Of Birdland
TTITLE1=I Let A Song Get Out Of My Heart
TTITLE2=Barney's Blues 9
TTITLE3=Prelude To A Kiss
TTITLE4=A Foggy DAy
TTITLE5=64 Bars On Wiltshire
TTITLE6=Begin The Blues
TTITLE7=Louisiana
TTITLE8=Happy Feeling
TTITLE9=Embraceable You
TTITLE10=Wall Street
TTITLE11=Indiana
TTITLE12=Moten Swing
TTITLE13=Midnight Sun
EXTD=YEAR: 2005
EXTT0=
EXTT1=
EXTT2=
EXTT3=
EXTT4=
EXTT5=
EXTT6=
EXTT7=
EXTT8=
EXTT9=
EXTT10=
EXTT11=
EXTT12=
EXTT13=
PLAYORDER=
